<mxfile modified="2023-03-15T22:13:00.937Z" host="Electron" agent="5.0 (Windows NT 10.0; Win64; x64) AppleWebKit/537.36 (KHTML, like Gecko) draw.io/20.3.0 Chrome/104.0.5112.114 Electron/20.1.3 Safari/537.36" etag="2tMzgsgXh251-tJDbUad" compressed="false" version="20.3.0" type="device">
  <diagram id="TrsniUOJQiZ3b-0WJpr6" name="Media Functionality Groups - HL">
    <mxGraphModel dx="782" dy="517" grid="1" gridSize="10" guides="1" tooltips="1" connect="1" arrows="1" fold="1" page="1" pageScale="1" pageWidth="827" pageHeight="1169" math="0" shadow="0">
      <root>
        <mxCell id="KJWLAp2p0ChzedePAGwP-0" />
        <mxCell id="KJWLAp2p0ChzedePAGwP-1" parent="KJWLAp2p0ChzedePAGwP-0" />
        <mxCell id="DORIbZeseczq295fh5JL-1" value="" style="group" parent="KJWLAp2p0ChzedePAGwP-1" vertex="1" connectable="0">
          <mxGeometry x="120" y="180" width="560" height="50" as="geometry" />
        </mxCell>
        <UserObject label="Information (if any) presented below builds upon &lt;br&gt;what is already within&amp;nbsp; the Description of the &lt;br&gt;Base Logical Module." link="https://drive.google.com/file/d/1oMV0IeGAAscQwm4mQmpwyKH3BHNU0Zv-/view?usp=sharing" id="DORIbZeseczq295fh5JL-2">
          <mxCell style="shape=note;size=20;whiteSpace=wrap;html=1;strokeWidth=1;fillColor=none;fontSize=12;align=left;fontStyle=2;strokeColor=#999999;fontColor=#999999;" parent="DORIbZeseczq295fh5JL-1" vertex="1">
            <mxGeometry width="280" height="50" as="geometry" />
          </mxCell>
        </UserObject>
        <mxCell id="DORIbZeseczq295fh5JL-3" value="" style="rounded=0;whiteSpace=wrap;html=1;fontSize=10;align=left;container=1;collapsible=0;fontColor=#B3B3B3;strokeColor=#B3B3B3;" parent="KJWLAp2p0ChzedePAGwP-1" vertex="1">
          <mxGeometry x="440" y="180" width="240" height="50" as="geometry" />
        </mxCell>
        <mxCell id="DORIbZeseczq295fh5JL-4" value="" style="whiteSpace=wrap;html=1;aspect=fixed;fillColor=none;strokeColor=#82b366;fontSize=10;align=left;fontStyle=2;strokeWidth=2;" parent="DORIbZeseczq295fh5JL-3" vertex="1">
          <mxGeometry x="13.294460641399398" y="16.666666666666668" width="8.333333333333334" height="8.333333333333334" as="geometry" />
        </mxCell>
        <mxCell id="DORIbZeseczq295fh5JL-5" value="" style="whiteSpace=wrap;html=1;aspect=fixed;fillColor=none;strokeColor=#d6b656;fontSize=10;align=left;fontStyle=2;strokeWidth=2;" parent="DORIbZeseczq295fh5JL-3" vertex="1">
          <mxGeometry x="13.294460641399398" y="28" width="8.333333333333334" height="8.333333333333334" as="geometry" />
        </mxCell>
        <mxCell id="DORIbZeseczq295fh5JL-6" value="" style="whiteSpace=wrap;html=1;aspect=fixed;fillColor=none;strokeColor=#6c8ebf;fontSize=10;align=left;fontStyle=2;strokeWidth=2;" parent="DORIbZeseczq295fh5JL-3" vertex="1">
          <mxGeometry x="13.294460641399398" y="39.333333333333336" width="8.333333333333334" height="8.333333333333334" as="geometry" />
        </mxCell>
        <mxCell id="DORIbZeseczq295fh5JL-7" value="Internal, System (underlying optional Tenants)&amp;nbsp;" style="text;html=1;strokeColor=none;fillColor=none;align=left;verticalAlign=middle;whiteSpace=wrap;rounded=0;fontSize=10;fontStyle=2;fontColor=#B3B3B3;" parent="DORIbZeseczq295fh5JL-3" vertex="1">
          <mxGeometry x="26.5945189504373" y="16.666666666666668" width="213.40548104956264" height="8.333333333333334" as="geometry" />
        </mxCell>
        <mxCell id="DORIbZeseczq295fh5JL-8" value="Internal, (optionally) Tenanted" style="text;html=1;strokeColor=none;fillColor=none;align=left;verticalAlign=middle;whiteSpace=wrap;rounded=0;fontSize=10;fontStyle=2;fontColor=#B3B3B3;" parent="DORIbZeseczq295fh5JL-3" vertex="1">
          <mxGeometry x="26.59" y="30" width="213.41" height="6.33" as="geometry" />
        </mxCell>
        <mxCell id="DORIbZeseczq295fh5JL-9" value="External, Versioned Contracts/Msgs" style="text;html=1;strokeColor=none;fillColor=none;align=left;verticalAlign=middle;whiteSpace=wrap;rounded=0;fontSize=10;fontStyle=2;fontColor=#B3B3B3;" parent="DORIbZeseczq295fh5JL-3" vertex="1">
          <mxGeometry x="26.5945189504373" y="39.333333333333336" width="213.40548104956264" height="8.333333333333334" as="geometry" />
        </mxCell>
        <mxCell id="DORIbZeseczq295fh5JL-10" value="Legend" style="text;html=1;strokeColor=none;fillColor=none;align=center;verticalAlign=middle;whiteSpace=wrap;rounded=0;fontSize=10;fontStyle=5;fontColor=#B3B3B3;" parent="DORIbZeseczq295fh5JL-3" vertex="1">
          <mxGeometry x="26.588921282798815" width="159.53352769679296" height="16.666666666666668" as="geometry" />
        </mxCell>
        <mxCell id="DORIbZeseczq295fh5JL-11" value="&lt;div style=&quot;text-align: center&quot;&gt;Resource&lt;/div&gt;" style="rounded=1;whiteSpace=wrap;html=1;strokeColor=#6c8ebf;strokeWidth=1;fillColor=none;dashed=1;verticalAlign=top;align=left;spacingLeft=4;spacing=0;spacingTop=-5;arcSize=16;absoluteArcSize=1;collapsible=0;container=1;recursiveResize=0;fontSize=12;labelBackgroundColor=none;horizontal=0;" parent="KJWLAp2p0ChzedePAGwP-1" vertex="1">
          <mxGeometry x="120" y="270" width="180" height="210" as="geometry" />
        </mxCell>
        <mxCell id="DORIbZeseczq295fh5JL-12" value="Manage Resources" style="ellipse;whiteSpace=wrap;html=1;shadow=0;glass=0;comic=0;strokeColor=#d6b656;strokeWidth=3;fillColor=none;fontSize=12;align=center;" parent="DORIbZeseczq295fh5JL-11" vertex="1">
          <mxGeometry x="30" y="60" width="120" height="40" as="geometry" />
        </mxCell>
        <mxCell id="DORIbZeseczq295fh5JL-13" value="Manage Resource Collections" style="ellipse;whiteSpace=wrap;html=1;shadow=0;glass=0;comic=0;strokeColor=#d6b656;strokeWidth=3;fillColor=none;fontSize=12;align=center;" parent="DORIbZeseczq295fh5JL-11" vertex="1">
          <mxGeometry x="30" y="10" width="120" height="40" as="geometry" />
        </mxCell>
        <mxCell id="DORIbZeseczq295fh5JL-14" value="Manage &lt;br&gt;Use Constraints / Copyrights" style="ellipse;whiteSpace=wrap;html=1;shadow=0;glass=0;comic=0;strokeColor=#d6b656;strokeWidth=3;fillColor=none;fontSize=12;align=center;" parent="DORIbZeseczq295fh5JL-11" vertex="1">
          <mxGeometry x="30" y="160" width="120" height="40" as="geometry" />
        </mxCell>
        <mxCell id="DORIbZeseczq295fh5JL-15" value="Manage Resource Categorisation" style="ellipse;whiteSpace=wrap;html=1;shadow=0;glass=0;comic=0;strokeColor=#d6b656;strokeWidth=3;fillColor=none;fontSize=12;align=center;" parent="DORIbZeseczq295fh5JL-11" vertex="1">
          <mxGeometry x="30" y="110" width="120" height="40" as="geometry" />
        </mxCell>
        <mxCell id="DORIbZeseczq295fh5JL-16" value="&lt;div style=&quot;text-align: center&quot;&gt;&lt;span&gt;Flow managed Creation&lt;/span&gt;&lt;/div&gt;" style="rounded=1;whiteSpace=wrap;html=1;strokeColor=#6c8ebf;strokeWidth=1;fillColor=none;dashed=1;verticalAlign=top;align=left;spacingLeft=4;spacing=0;spacingTop=-5;arcSize=16;absoluteArcSize=1;collapsible=0;container=1;recursiveResize=0;fontSize=12;labelBackgroundColor=none;horizontal=0;" parent="KJWLAp2p0ChzedePAGwP-1" vertex="1">
          <mxGeometry x="400" y="270" width="170" height="110" as="geometry" />
        </mxCell>
        <mxCell id="DORIbZeseczq295fh5JL-17" value="Manage Resource Collaborators" style="ellipse;whiteSpace=wrap;html=1;shadow=0;glass=0;comic=0;strokeColor=#d6b656;strokeWidth=3;fillColor=none;fontSize=12;align=center;" parent="DORIbZeseczq295fh5JL-16" vertex="1">
          <mxGeometry x="30" y="60" width="120" height="40" as="geometry" />
        </mxCell>
        <mxCell id="DORIbZeseczq295fh5JL-18" value="Manage Resource State" style="ellipse;whiteSpace=wrap;html=1;shadow=0;glass=0;comic=0;strokeColor=#d6b656;strokeWidth=3;fillColor=none;fontSize=12;align=center;" parent="DORIbZeseczq295fh5JL-16" vertex="1">
          <mxGeometry x="30" y="10" width="120" height="40" as="geometry" />
        </mxCell>
        <mxCell id="DORIbZeseczq295fh5JL-19" style="rounded=0;orthogonalLoop=1;jettySize=auto;html=1;startArrow=none;startFill=0;endArrow=none;endFill=0;strokeColor=#000000;fontSize=12;fontColor=#808080;entryX=1;entryY=0.5;entryDx=0;entryDy=0;" parent="KJWLAp2p0ChzedePAGwP-1" target="DORIbZeseczq295fh5JL-12" edge="1">
          <mxGeometry relative="1" as="geometry">
            <mxPoint x="330" y="440" as="sourcePoint" />
            <mxPoint x="260" y="430" as="targetPoint" />
          </mxGeometry>
        </mxCell>
        <mxCell id="DORIbZeseczq295fh5JL-20" style="rounded=0;orthogonalLoop=1;jettySize=auto;html=1;entryX=1;entryY=0.5;entryDx=0;entryDy=0;startArrow=none;startFill=0;endArrow=none;endFill=0;strokeColor=#000000;fontSize=12;fontColor=#808080;" parent="KJWLAp2p0ChzedePAGwP-1" target="DORIbZeseczq295fh5JL-14" edge="1">
          <mxGeometry relative="1" as="geometry">
            <mxPoint x="330" y="440" as="sourcePoint" />
            <mxPoint x="450" y="370" as="targetPoint" />
          </mxGeometry>
        </mxCell>
        <mxCell id="DORIbZeseczq295fh5JL-21" style="rounded=0;orthogonalLoop=1;jettySize=auto;html=1;entryX=1;entryY=0.5;entryDx=0;entryDy=0;startArrow=none;startFill=0;endArrow=none;endFill=0;strokeColor=#000000;fontSize=12;fontColor=#808080;exitX=0;exitY=0.5;exitDx=0;exitDy=0;exitPerimeter=0;" parent="KJWLAp2p0ChzedePAGwP-1" source="DORIbZeseczq295fh5JL-27" target="DORIbZeseczq295fh5JL-13" edge="1">
          <mxGeometry relative="1" as="geometry">
            <mxPoint x="320" y="420" as="sourcePoint" />
            <mxPoint x="450" y="370" as="targetPoint" />
          </mxGeometry>
        </mxCell>
        <mxCell id="DORIbZeseczq295fh5JL-22" style="rounded=0;orthogonalLoop=1;jettySize=auto;html=1;entryX=0;entryY=0.5;entryDx=0;entryDy=0;startArrow=none;startFill=0;endArrow=none;endFill=0;strokeColor=#000000;fontSize=12;fontColor=#808080;" parent="KJWLAp2p0ChzedePAGwP-1" target="DORIbZeseczq295fh5JL-18" edge="1">
          <mxGeometry relative="1" as="geometry">
            <mxPoint x="360" y="440" as="sourcePoint" />
            <mxPoint x="450" y="410" as="targetPoint" />
          </mxGeometry>
        </mxCell>
        <mxCell id="DORIbZeseczq295fh5JL-23" style="rounded=0;orthogonalLoop=1;jettySize=auto;html=1;entryX=0;entryY=0.5;entryDx=0;entryDy=0;startArrow=none;startFill=0;endArrow=none;endFill=0;strokeColor=#000000;fontSize=12;fontColor=#808080;" parent="KJWLAp2p0ChzedePAGwP-1" target="DORIbZeseczq295fh5JL-17" edge="1">
          <mxGeometry relative="1" as="geometry">
            <mxPoint x="360" y="440" as="sourcePoint" />
            <mxPoint x="450" y="450" as="targetPoint" />
          </mxGeometry>
        </mxCell>
        <mxCell id="DORIbZeseczq295fh5JL-24" style="rounded=0;orthogonalLoop=1;jettySize=auto;html=1;entryX=1;entryY=0.5;entryDx=0;entryDy=0;startArrow=none;startFill=0;endArrow=none;endFill=0;strokeColor=#000000;fontSize=12;fontColor=#808080;exitX=0;exitY=0.498;exitDx=0;exitDy=0;exitPerimeter=0;" parent="KJWLAp2p0ChzedePAGwP-1" source="DORIbZeseczq295fh5JL-27" target="DORIbZeseczq295fh5JL-15" edge="1">
          <mxGeometry relative="1" as="geometry">
            <mxPoint x="320" y="420" as="sourcePoint" />
            <mxPoint x="450" y="610" as="targetPoint" />
          </mxGeometry>
        </mxCell>
        <mxCell id="DORIbZeseczq295fh5JL-25" style="rounded=0;orthogonalLoop=1;jettySize=auto;html=1;entryX=1;entryY=0.5;entryDx=0;entryDy=0;startArrow=none;startFill=0;endArrow=none;endFill=0;strokeColor=#000000;fontSize=12;fontColor=#808080;" parent="KJWLAp2p0ChzedePAGwP-1" target="DORIbZeseczq295fh5JL-33" edge="1">
          <mxGeometry relative="1" as="geometry">
            <mxPoint x="330" y="440" as="sourcePoint" />
            <mxPoint x="450" y="450" as="targetPoint" />
          </mxGeometry>
        </mxCell>
        <mxCell id="DORIbZeseczq295fh5JL-26" style="rounded=0;orthogonalLoop=1;jettySize=auto;html=1;entryX=1;entryY=0.5;entryDx=0;entryDy=0;startArrow=none;startFill=0;endArrow=none;endFill=0;strokeColor=#000000;fontSize=12;fontColor=#808080;" parent="KJWLAp2p0ChzedePAGwP-1" target="DORIbZeseczq295fh5JL-35" edge="1">
          <mxGeometry relative="1" as="geometry">
            <mxPoint x="330" y="440" as="sourcePoint" />
            <mxPoint x="450" y="650" as="targetPoint" />
          </mxGeometry>
        </mxCell>
        <mxCell id="DORIbZeseczq295fh5JL-27" value="User" style="shape=umlActor;verticalLabelPosition=bottom;labelBackgroundColor=#ffffff;verticalAlign=top;html=1;shadow=0;glass=0;comic=0;strokeColor=#B3B3B3;strokeWidth=1;fillColor=none;fontSize=12;fontColor=#000000;align=center;" parent="KJWLAp2p0ChzedePAGwP-1" vertex="1">
          <mxGeometry x="330" y="420" width="20" height="40" as="geometry" />
        </mxCell>
        <mxCell id="DORIbZeseczq295fh5JL-28" style="rounded=0;orthogonalLoop=1;jettySize=auto;html=1;entryX=0;entryY=0.5;entryDx=0;entryDy=0;startArrow=none;startFill=0;endArrow=none;endFill=0;strokeColor=#000000;fontSize=12;fontColor=#808080;" parent="KJWLAp2p0ChzedePAGwP-1" target="DORIbZeseczq295fh5JL-38" edge="1">
          <mxGeometry relative="1" as="geometry">
            <mxPoint x="360" y="440" as="sourcePoint" />
            <mxPoint x="440" y="420" as="targetPoint" />
          </mxGeometry>
        </mxCell>
        <mxCell id="DORIbZeseczq295fh5JL-29" style="rounded=0;orthogonalLoop=1;jettySize=auto;html=1;entryX=0.025;entryY=0.596;entryDx=0;entryDy=0;startArrow=none;startFill=0;endArrow=none;endFill=0;strokeColor=#000000;fontSize=12;fontColor=#808080;entryPerimeter=0;" parent="KJWLAp2p0ChzedePAGwP-1" target="DORIbZeseczq295fh5JL-40" edge="1">
          <mxGeometry relative="1" as="geometry">
            <mxPoint x="360" y="440" as="sourcePoint" />
            <mxPoint x="430" y="490" as="targetPoint" />
          </mxGeometry>
        </mxCell>
        <mxCell id="DORIbZeseczq295fh5JL-30" style="rounded=0;orthogonalLoop=1;jettySize=auto;html=1;entryX=0;entryY=0.5;entryDx=0;entryDy=0;startArrow=none;startFill=0;endArrow=none;endFill=0;strokeColor=#000000;fontSize=12;fontColor=#808080;" parent="KJWLAp2p0ChzedePAGwP-1" target="DORIbZeseczq295fh5JL-41" edge="1">
          <mxGeometry relative="1" as="geometry">
            <mxPoint x="360" y="440" as="sourcePoint" />
            <mxPoint x="433" y="543.84" as="targetPoint" />
          </mxGeometry>
        </mxCell>
        <mxCell id="DORIbZeseczq295fh5JL-31" value="&lt;div style=&quot;text-align: center&quot;&gt;&lt;span&gt;Extended&lt;/span&gt;&lt;/div&gt;" style="rounded=1;whiteSpace=wrap;html=1;strokeColor=#6c8ebf;strokeWidth=1;fillColor=none;dashed=1;verticalAlign=top;align=left;spacingLeft=4;spacing=0;spacingTop=-5;arcSize=16;absoluteArcSize=1;collapsible=0;container=1;recursiveResize=0;fontSize=12;labelBackgroundColor=none;horizontal=0;" parent="KJWLAp2p0ChzedePAGwP-1" vertex="1">
          <mxGeometry x="120" y="490" width="180" height="150" as="geometry" />
        </mxCell>
        <mxCell id="DORIbZeseczq295fh5JL-32" value="&lt;div style=&quot;text-align: center&quot;&gt;&lt;span&gt;Links&lt;/span&gt;&lt;/div&gt;" style="rounded=1;whiteSpace=wrap;html=1;strokeColor=#6c8ebf;strokeWidth=1;fillColor=none;dashed=1;verticalAlign=top;align=left;spacingLeft=4;spacing=0;spacingTop=-5;arcSize=16;absoluteArcSize=1;collapsible=0;container=1;recursiveResize=0;fontSize=12;labelBackgroundColor=none;horizontal=0;" parent="DORIbZeseczq295fh5JL-31" vertex="1">
          <mxGeometry x="20" y="80" width="150" height="60" as="geometry" />
        </mxCell>
        <mxCell id="DORIbZeseczq295fh5JL-33" value="Manage Resource Relationships" style="ellipse;whiteSpace=wrap;html=1;shadow=0;glass=0;comic=0;strokeColor=#d6b656;strokeWidth=3;fillColor=none;fontSize=12;align=center;" parent="DORIbZeseczq295fh5JL-32" vertex="1">
          <mxGeometry x="20" y="9.999999999999886" width="120" height="40" as="geometry" />
        </mxCell>
        <mxCell id="DORIbZeseczq295fh5JL-34" value="&lt;div style=&quot;text-align: center&quot;&gt;&lt;span&gt;Search&lt;/span&gt;&lt;/div&gt;" style="rounded=1;whiteSpace=wrap;html=1;strokeColor=#6c8ebf;strokeWidth=1;fillColor=none;dashed=1;verticalAlign=top;align=left;spacingLeft=4;spacing=0;spacingTop=-5;arcSize=16;absoluteArcSize=1;collapsible=0;container=1;recursiveResize=0;fontSize=12;labelBackgroundColor=none;horizontal=0;" parent="DORIbZeseczq295fh5JL-31" vertex="1">
          <mxGeometry x="20" y="10" width="150" height="60" as="geometry" />
        </mxCell>
        <mxCell id="DORIbZeseczq295fh5JL-35" value="Search" style="ellipse;whiteSpace=wrap;html=1;shadow=0;glass=0;comic=0;strokeColor=#d6b656;strokeWidth=3;fillColor=none;fontSize=12;align=center;" parent="DORIbZeseczq295fh5JL-34" vertex="1">
          <mxGeometry x="20" y="10" width="120" height="40" as="geometry" />
        </mxCell>
        <mxCell id="DORIbZeseczq295fh5JL-36" value="&lt;div style=&quot;text-align: center&quot;&gt;&lt;font style=&quot;font-size: 11px&quot;&gt;Common Functionality Extension&amp;nbsp;&lt;/font&gt;&lt;/div&gt;" style="rounded=1;whiteSpace=wrap;html=1;strokeColor=#6c8ebf;strokeWidth=1;fillColor=none;dashed=1;verticalAlign=top;align=left;spacingLeft=4;spacing=0;spacingTop=-5;arcSize=16;absoluteArcSize=1;collapsible=0;container=1;recursiveResize=0;fontSize=12;labelBackgroundColor=none;horizontal=1;opacity=40;" parent="KJWLAp2p0ChzedePAGwP-1" vertex="1">
          <mxGeometry x="400" y="410" width="180" height="220" as="geometry" />
        </mxCell>
        <mxCell id="DORIbZeseczq295fh5JL-37" value="&lt;div style=&quot;text-align: center&quot;&gt;&lt;span&gt;Endorse&lt;/span&gt;&lt;span&gt;ment&lt;/span&gt;&lt;/div&gt;" style="rounded=1;whiteSpace=wrap;html=1;strokeColor=#6c8ebf;strokeWidth=1;fillColor=none;dashed=1;verticalAlign=top;align=left;spacingLeft=4;spacing=0;spacingTop=-5;arcSize=16;absoluteArcSize=1;collapsible=0;container=1;recursiveResize=0;fontSize=12;labelBackgroundColor=none;horizontal=1;" parent="DORIbZeseczq295fh5JL-36" vertex="1">
          <mxGeometry x="10" y="20" width="160" height="70" as="geometry" />
        </mxCell>
        <mxCell id="DORIbZeseczq295fh5JL-38" value="Manage Endorsements" style="ellipse;whiteSpace=wrap;html=1;shadow=0;glass=0;comic=0;strokeColor=#d6b656;strokeWidth=3;fillColor=none;fontSize=12;align=center;opacity=40;" parent="DORIbZeseczq295fh5JL-37" vertex="1">
          <mxGeometry x="20" y="19.999999999999943" width="120" height="40" as="geometry" />
        </mxCell>
        <mxCell id="DORIbZeseczq295fh5JL-39" value="&lt;div style=&quot;text-align: center&quot;&gt;&lt;span&gt;Feedback&lt;/span&gt;&lt;/div&gt;" style="rounded=1;whiteSpace=wrap;html=1;strokeColor=#6c8ebf;strokeWidth=1;fillColor=none;dashed=1;verticalAlign=top;align=left;spacingLeft=4;spacing=0;spacingTop=-5;arcSize=16;absoluteArcSize=1;collapsible=0;container=1;recursiveResize=0;fontSize=12;labelBackgroundColor=none;horizontal=0;" parent="DORIbZeseczq295fh5JL-36" vertex="1">
          <mxGeometry x="10" y="100" width="160" height="110" as="geometry" />
        </mxCell>
        <mxCell id="DORIbZeseczq295fh5JL-40" value="Manage &lt;br style=&quot;font-size: 12px;&quot;&gt;Ratings" style="ellipse;whiteSpace=wrap;html=1;shadow=0;glass=0;comic=0;strokeColor=#d6b656;strokeWidth=3;fillColor=none;fontSize=12;align=center;opacity=40;" parent="DORIbZeseczq295fh5JL-39" vertex="1">
          <mxGeometry x="20" y="10" width="120" height="40" as="geometry" />
        </mxCell>
        <mxCell id="DORIbZeseczq295fh5JL-41" value="Manage Comments" style="ellipse;whiteSpace=wrap;html=1;shadow=0;glass=0;comic=0;strokeColor=#d6b656;strokeWidth=3;fillColor=none;fontSize=12;align=center;opacity=40;" parent="DORIbZeseczq295fh5JL-39" vertex="1">
          <mxGeometry x="20" y="60" width="120" height="40" as="geometry" />
        </mxCell>
        <mxCell id="-Mq9vWX-7ah3vRpkUJr5-0" value="Title" parent="KJWLAp2p0ChzedePAGwP-0" visible="0" />
        <mxCell id="DORIbZeseczq295fh5JL-0" value="&lt;font style=&quot;font-size: 12px&quot;&gt;Diagram: Media Logical Module -&amp;nbsp;Functionality - Functionality Groups - High Level&lt;/font&gt;" style="text;strokeColor=none;fillColor=none;html=1;fontSize=12;fontStyle=2;verticalAlign=middle;align=left;shadow=0;glass=0;comic=0;opacity=30;fontColor=#808080;" parent="-Mq9vWX-7ah3vRpkUJr5-0" vertex="1">
          <mxGeometry x="120" y="670" width="520" height="20" as="geometry" />
        </mxCell>
      </root>
    </mxGraphModel>
  </diagram>
</mxfile>
